<?xml version="1.0" standalone="no"?>
<!DOCTYPE svg PUBLIC "-//W3C//DTD SVG 20010904//EN"
 "http://www.w3.org/TR/2001/REC-SVG-20010904/DTD/svg10.dtd">
<svg version="1.0" xmlns="http://www.w3.org/2000/svg"
 width="16.000000pt" height="16.000000pt" viewBox="0 0 16.000000 16.000000"
 preserveAspectRatio="xMidYMid meet">
<metadata>
Created by potrace 1.11, written by Peter Selinger 2001-2013
</metadata>
<g transform="translate(0.000000,16.000000) scale(0.006154,-0.006154)"
fill="#000000" stroke="none">
<path d="M198 2392 l-36 -3 0 -90 1 -89 144 0 143 0 0 -910 0 -910 -144 0
-144 0 0 -90 c0 -50 3 -90 6 -90 18 -1 609 -1 694 -1 l96 1 0 90 -1 90 -144 0
-143 0 -1 808 c0 444 -2 821 -4 837 -3 23 3 16 25 -30 23 -48 118 -191 234
-350 8 -11 53 -74 99 -140 47 -66 130 -183 185 -260 55 -77 240 -338 412 -580
171 -242 318 -446 325 -454 12 -12 104 -17 205 -12 13 1 15 118 15 999 l0 997
143 3 142 3 0 92 0 92 -391 -1 c-214 -1 -393 -5 -396 -8 -4 -3 -7 -44 -7 -91
l-1 -84 145 -3 145 -3 0 -828 0 -827 -21 47 c-11 27 -70 118 -130 203 -270
380 -510 718 -537 755 -16 22 -116 164 -223 315 -107 151 -210 295 -228 320
-18 25 -57 80 -87 123 -29 42 -58 77 -64 77 -54 3 -429 4 -457 2z"/>
</g>
</svg>
